# xmcd
#
# Track frame offsets:
#	150
#	17736
#	30420
#	46355
#	61104
#	77358
#	93005
#	108976
#	122311
#	141189
#	159943
#	176566
#	190408
#	202471
#	217224
#	231075
#	244682
#	259360
#	274254
#	289945
#	305824
#
# Disc length: 4247 seconds
#
# Revision: 0
# Processed by: cddbd v1.5.2PL0 Copyright (c) Steve Scherf et al.
# Submitted via: EZCDAudioConverter 3.1.0.1
#
DISCID=2d109515
DTITLE=Nu Country Traxx Volume 216 US
DYEAR=2017
DGENRE=country
TTITLE0=Tim McGraw and Faith Hill - Speak To A Girl
TTITLE1=Little Big Town - Happy People
TTITLE2=Garth Brooks - Ask Me How I Know
TTITLE3=Maren Morris - I Could Use A Love Song
TTITLE4=Eric Church - Round Here Buzz
TTITLE5=A Thousand Horses - Preachin' To The Choir
TTITLE6=The Railers - 11:59 (Central Standard Time)
TTITLE7=Old Dominion - No Such Thing As A Broken Heart
TTITLE8=Charlie Worsham - Cut Your Groove
TTITLE9=Walker McGuire - Til Tomorrow
TTITLE10=Delta Rae - A Long And Happy Life
TTITLE11=Denny Strickland - We Don't Sleep
TTITLE12=Canaan Smith - Like You That Way
TTITLE13=Jacob Davis - What I Wanna Be
TTITLE14=Ali Morgan - Crazy
TTITLE15=High Valley - She's With Me
TTITLE16=Chelsea Bain - Drinkin Alone
TTITLE17=Stephanie Quayle - Winnebago
TTITLE18=Jerrod Niemann - God Made A Woman
TTITLE19=Parker Willingham - You Get Me Every Time
TTITLE20=Coffey Anderson - Bud Light Blue
EXTD=
EXTT0=
EXTT1=
EXTT2=
EXTT3=
EXTT4=
EXTT5=
EXTT6=
EXTT7=
EXTT8=
EXTT9=
EXTT10=
EXTT11=
EXTT12=
EXTT13=
EXTT14=
EXTT15=
EXTT16=
EXTT17=
EXTT18=
EXTT19=
EXTT20=
PLAYORDER=
